<svg xmlns="http://www.w3.org/2000/svg" width="1024" height="1024" class="colorable-icon" overflow="visible" viewBox="3.637 31.983 1016.271 960.282"><path fill="none" stroke="#fff" stroke-linecap="round" stroke-linejoin="round" stroke-width="45" d="M59.227 510.11c-9.055-1.147-18.427-3.889-30.931-10.127-6.73-5.152-12.142-10.788-16.221-16.51-2.961-5.866-6.11-17.135-7.28-29.468L4 376.628m956.011 502.526c-.671 17.941-2.15 30.08-4.833 42.082-4.202 12.027-10.509 24.476-14.586 30.62-10.226 11.788-16.129 17.119-22.209 21.773-12.436 7.307-30.786 14.059-48.628 16.879l-47.834 1.168m-639.573.589c-29.762-1.721-41.601-4.057-53.629-7.962-12.063-5.905-23.747-14.104-29.25-18.972-10.307-11.19-14.895-17.331-22.184-29.605-4.939-11.565-8.274-23.125-10.763-40.688l-.771-53.742m883.675-522.038c17.805.791 29.745 2.926 35.709 4.803 12.034 6.544 17.71 11.528 22.539 17.3 6.288 11.918 10.724 29.684 12.234 47.632l-.482 29.888m0 0c-.581 41.97-3.568 54.168-6.35 60.342-8.373 12.024-19.424 21.633-31.513 27.602l-9.484 2.68m-482.27-191.418c132.887-.048 168.831-1.08 205.334-3.35 61.416-20.571 88.931-32.785 113.108-46.793 26.801-20.247 45.386-38.488 54.525-49.654 7.435-10.927 18.042-31.161 21.817-41.309 4.295-15.793 6.14-28.699 6.532-40.709-1.064-12.3-2.732-20.349-6.407-32.544-2.921-6.907-8.006-16.501-14.422-26.364-13.32-14.971-22.616-22.779-30.078-27.868-7.872-4.603-21.158-10.621-40.655-16.016-11.071-1.558-19.868-1.863-31.866-1.087-11.882 1.988-23.151 4.977-34.905 9.285-17.284 8.829-34.963 21.225-52.464 37.125-21.105 23.114-39.346 46.8-55.429 70.564l-22.085 35.779m-224.881-62.953c-18.557-23.778-34.13-41.293-51.979-57.638-13.943-10.084-30.136-19.488-44.278-25.408-17.925-5.077-39.253-7.554-57.111-6.382-17.997 4.341-34.326 11.298-51.483 22.611-12.779 11.828-24.351 26.73-33.343 44.028-5.073 17.024-6.814 32.124-6.548 47.551 2.147 15.721 6.576 31.934 12.8 46.92 9.113 15.828 19.378 29.538 30.52 41.591 13.361 12.344 29.23 24.595 46.155 35.655 18.539 10.101 35.297 17.819 52.163 24.448l63.649 20.514m620.73 193.382-899.981.645m900.017 2.454.767 366.59m-446.762-561.29-.033 674.091M682.17 319.03l267.256.228m-438.655-10.355-132.838-186.71m443.988 869.483-639.573.589M65.751 841.296l-.277-330.92M3.702 376.643a54.722 54.722 0 0 1 70.937-54.91m.523-1.68 414.647-1.966m113.005-132.941-89.228 121.063"/></svg>