<svg xmlns="http://www.w3.org/2000/svg" width="1024" height="1024" viewBox="0 0 1023.969970703125 1024" class="colorable-icon" data-export-recolorable-svg="true" overflow="visible"><g fill="none" stroke="white" stroke-width="45" stroke-linecap="round" stroke-linejoin="round"><path d="M 408.63,307.73 Q 402.38,314.88 341.41,376.68" data-line="nan" stroke-width="45.0"></path><path d="M 173.29,545.16 C 148.17,568.58 140.64,577.41 136.87,585.15 C 134.63,591.99 132.65,603.52 131.78,616.11" data-line="nan" stroke-width="45.0"></path><path d="M 410.08,641.51 C 416.49,648.01 424.53,659.54 430.34,671.21 C 434.62,684.02 436.79,694.84 437.97,710.6 C 436.84,724.55 433.88,738.46 429.87,750.29 C 424.62,761.52 418.85,771.06 409.24,784.29 Q 392.25,805.07 351.18,847.19" data-line="nan" stroke-width="45.0"></path><path d="M 831.08,160.37 C 828.51,188.6 825.18,211.57 821.9,230.04 C 818.16,243.82 812.45,257.77 807.09,267.19 C 795.96,281.0 786.58,289.25 777.15,295.43 C 767.85,299.83 758.59,302.89 744.86,305.35 Q 712.77,307.03 622.58,308.79" data-line="nan" stroke-width="45.0"></path><path d="M 812.72,512.0 C 803.86,517.15 780.72,533.09 761.92,544.29 C 739.91,555.36 713.93,565.98 689.61,573.74 C 664.86,579.62 639.53,583.77 604.14,587.52" data-line="nan" stroke-width="45.0"></path><path d="M 1021.63,588.05 C 982.4,583.4 958.33,579.29 932.1,572.95 C 908.5,565.3 883.62,555.12 858.58,542.41 Q 842.29,532.47 812.72,512.0" data-line="nan" stroke-width="45.0"></path><path d="M 1021.63,588.05 Q 1023.58,598.5 1023.97,626.69" data-line="nan" stroke-width="45.0"></path><path d="M 1023.53,676.5 C 1021.66,704.68 1018.16,732.97 1012.83,763.2 C 1006.71,788.23 999.3,811.7 990.31,834.45 C 979.4,857.28 967.18,878.93 953.45,899.72 C 937.81,920.18 921.23,938.89 901.97,957.99 C 881.31,976.19 856.49,995.66 829.28,1014.31 L 812.14,1024.0" data-line="nan" stroke-width="45.0"></path><path d="M 812.14,1024.0 C 796.86,1015.43 765.52,993.9 740.62,974.11 C 717.88,953.44 697.8,932.42 680.56,911.56 C 665.02,889.77 651.27,867.02 639.68,844.34 C 629.16,819.62 621.1,795.89 614.55,771.21 C 608.63,740.68 604.66,711.58 601.97,678.85 L 601.02,646.59" data-line="nan" stroke-width="45.0"></path><path d="M 601.16,602.16 Q 601.77,595.48 604.14,587.52" data-line="nan" stroke-width="45.0"></path><path d="M 408.63,307.73 L 410.53,305.99" data-line="1.0" stroke-width="45.0"></path><path d="M 410.53,305.99 L 412.39,303.55" data-line="2.0" stroke-width="45.0"></path><path d="M 412.39,303.55 L 414.31,300.11" data-line="3.0" stroke-width="45.0"></path><path d="M 414.31,300.11 L 415.87,295.64" data-line="4.0" stroke-width="45.0"></path><path d="M 415.87,295.64 L 416.93,291.09" data-line="5.0" stroke-width="45.0"></path><path d="M 416.93,291.09 L 417.56,0.0" data-line="6.0" stroke-width="45.0"></path><path d="M 0.0,848.22 L 131.79,848.07" data-line="7.0" stroke-width="45.0"></path><path d="M 131.74,854.94 L 132.09,921.2" data-line="8.0" stroke-width="45.0"></path><path d="M 456.48,920.53 L 132.09,921.2" data-line="9.0" stroke-width="45.0"></path><path d="M 419.0,849.68 L 351.18,847.19" data-line="10.0" stroke-width="45.0"></path><path d="M 419.0,849.68 L 423.73,851.24" data-line="11.0" stroke-width="45.0"></path><path d="M 423.73,851.24 L 428.51,853.44" data-line="12.0" stroke-width="45.0"></path><path d="M 428.51,853.44 L 433.15,856.3" data-line="13.0" stroke-width="45.0"></path><path d="M 433.15,856.3 L 437.49,859.78" data-line="14.0" stroke-width="45.0"></path><path d="M 437.49,859.78 L 441.39,863.76" data-line="15.0" stroke-width="45.0"></path><path d="M 441.39,863.76 L 444.77,868.16" data-line="16.0" stroke-width="45.0"></path><path d="M 444.77,868.16 L 447.63,872.82" data-line="17.0" stroke-width="45.0"></path><path d="M 447.92538782296697,872.6929207775556 A 105.11184482533562,105.11184482533562 0 0,1 456.2934664841494,920.5188237106805" data-line="18.0" stroke-width="45.0"></path><path d="M 309.5975804964639,609.4012516667558 A 112.01104368954324,112.01104368954324 0 0,1 408.7026331364535,639.0382408691022" data-line="20.0" stroke-width="45.0"></path><path d="M 408.4,639.35 L 410.08,641.51" data-line="21.0" stroke-width="45.0"></path><path d="M 392.25,805.07 L 351.18,847.19" data-line="22.0" stroke-width="45.0"></path><path d="M 521.35,103.51 L 417.56,0.0" data-line="23.0" stroke-width="45.0"></path><path d="M 630.59,105.26 L 521.35,103.51" data-line="24.0" stroke-width="45.0"></path><path d="M 630.59,105.26 L 635.25,106.65" data-line="25.0" stroke-width="45.0"></path><path d="M 635.25,106.65 L 639.96,108.55" data-line="26.0" stroke-width="45.0"></path><path d="M 639.96,108.55 L 644.59,111.05" data-line="27.0" stroke-width="45.0"></path><path d="M 644.59,111.05 L 649.17,114.15" data-line="28.0" stroke-width="45.0"></path><path d="M 649.17,114.15 L 689.68,152.92" data-line="29.0" stroke-width="45.0"></path><path d="M 689.68,152.92 L 694.08,156.16" data-line="30.0" stroke-width="45.0"></path><path d="M 694.08,156.16 L 698.7,158.41" data-line="31.0" stroke-width="45.0"></path><path d="M 698.7,158.41 L 703.4,159.51" data-line="32.0" stroke-width="45.0"></path><path d="M 703.4,159.51 L 831.08,160.37" data-line="33.0" stroke-width="45.0"></path><path d="M 621.73,520.5 L 622.58,308.79" data-line="35.0" stroke-width="45.0"></path><path d="M 341.41,376.68 L 173.29,545.16" data-line="36.0" stroke-width="45.0"></path><path d="M 600.1,921.56 L 526.67,921.03" data-line="36.0" stroke-width="45.0"></path><path d="M 526.17,611.91 L 526.67,921.03" data-line="37.0" stroke-width="45.0"></path><path d="M 131.78,616.11 L 131.74,854.94" data-line="38.0" stroke-width="45.0"></path><path d="M 1023.97,626.69 L 1023.53,676.5" data-line="44.0" stroke-width="45.0"></path><path d="M 601.02,646.59 L 601.16,602.16" data-line="47.0" stroke-width="45.0"></path></g></svg>