<svg xmlns="http://www.w3.org/2000/svg" width="1024" height="1024" class="colorable-icon" overflow="visible" viewBox="0 0 1023.97 1024"><path fill="none" stroke="#fff" stroke-linecap="round" stroke-linejoin="round" stroke-width="45" d="M408.63 307.73q-6.25 7.15-67.22 68.95M173.29 545.16c-25.12 23.42-32.65 32.25-36.42 39.99-2.24 6.84-4.22 18.37-5.09 30.96m278.3 25.4c6.41 6.5 14.45 18.03 20.26 29.7 4.28 12.81 6.45 23.63 7.63 39.39-1.13 13.95-4.09 27.86-8.1 39.69-5.25 11.23-11.02 20.77-20.63 34q-16.99 20.78-58.06 62.9m479.9-686.82c-2.57 28.23-5.9 51.2-9.18 69.67-3.74 13.78-9.45 27.73-14.81 37.15-11.13 13.81-20.51 22.06-29.94 28.24-9.3 4.4-18.56 7.46-32.29 9.92q-32.09 1.68-122.28 3.44M812.72 512c-8.86 5.15-32 21.09-50.8 32.29-22.01 11.07-47.99 21.69-72.31 29.45-24.75 5.88-50.08 10.03-85.47 13.78m417.49.53c-39.23-4.65-63.3-8.76-89.53-15.1-23.6-7.65-48.48-17.83-73.52-30.54q-16.29-9.94-45.86-30.41m208.91 76.05q1.95 10.45 2.34 38.64m-.44 49.81c-1.87 28.18-5.37 56.47-10.7 86.7-6.12 25.03-13.53 48.5-22.52 71.25-10.91 22.83-23.13 44.48-36.86 65.27-15.64 20.46-32.22 39.17-51.48 58.27-20.66 18.2-45.48 37.67-72.69 56.32l-17.14 9.69m0 0c-15.28-8.57-46.62-30.1-71.52-49.89-22.74-20.67-42.82-41.69-60.06-62.55-15.54-21.79-29.29-44.54-40.88-67.22-10.52-24.72-18.58-48.45-25.13-73.13-5.92-30.53-9.89-59.63-12.58-92.36l-.95-32.26m.14-44.43q.61-6.68 2.98-14.64M408.63 307.73l1.9-1.74m0 0 1.86-2.44m0 0 1.92-3.44m0 0 1.56-4.47m0 0 1.06-4.55m0 0L417.56 0M0 848.22l131.79-.15m-.05 6.87.35 66.26m324.39-.67-324.39.67M419 849.68l-67.82-2.49m67.82 2.49 4.73 1.56m0 0 4.78 2.2m0 0 4.64 2.86m0 0 4.34 3.48m0 0 3.9 3.98m0 0 3.38 4.4m0 0 2.86 4.66m.295-.127a105.1 105.1 0 0 1 8.368 47.826M309.598 609.401a112.01 112.01 0 0 1 99.105 29.637m-.303.312 1.68 2.16m-17.83 163.56-41.07 42.12m170.17-743.68L417.56 0m213.03 105.26-109.24-1.75m109.24 1.75 4.66 1.39m0 0 4.71 1.9m0 0 4.63 2.5m0 0 4.58 3.1m0 0 40.51 38.77m0 0 4.4 3.24m0 0 4.62 2.25m0 0 4.7 1.1m0 0 127.68.86M621.73 520.5l.85-211.71m-281.17 67.89L173.29 545.16m426.81 376.4-73.43-.53m-.5-309.12.5 309.12M131.78 616.11l-.04 238.83m892.23-228.25-.44 49.81m-422.51-29.91.14-44.43"/></svg>