<svg xmlns="http://www.w3.org/2000/svg" width="1024" height="1024" class="colorable-icon" overflow="visible" viewBox="50 -20 924 1064"><g fill="none" stroke="#000" stroke-linecap="round" stroke-linejoin="round" stroke-width="45"><path d="M701.757 450.031c-9.749 37.548-16.083 55.644-21.754 69.094-14.337 27.088-35.555 56.958-78.24 91.726-16.572 10.288-32.292 17.901-43.504 22.156-11.721 3.351-22.504 5.553-35.869 7.042-13.551.355-26.505-.432-50.532-4.818-23.466-8.014-44.882-19.096-61.739-30.686l-28.031-23.456M726.59 292.686c23.419 26.781 28.146 34.377 31.155 43.597 1.29 9.102 1.544 18.086.203 31.508-3.213 18.022-6.803 31.485-12.546 45.073-5.757 9.265-13.461 18.3-22.552 25.792l-21.093 11.375m-323.7 125.427c-24.42-35.835-32.517-49.809-38.66-62.296q-9.534-24.801-18.858-62.954m0 0c-11.575-5.098-21.417-11.02-30.568-18.556-6.727-7.308-12.898-16.108-18.138-26.451-4.025-11.596-7.222-25.463-9.792-43.728-.293-7.957 1.052-22.696 4.084-35.14 2.589-4.626 8.04-10.447 14.615-14.958l14.747-8.132m333.947-166.365c-25.7 20.537-44.061 32.716-66.74 44.188-22.385 7.831-40.57 11.664-58.621 13.674-22.461.858-67.247.953-85.177 2.25-22.349 4.492-35.694 8.953-44.66 12.875-8.808 4.813-17.804 11.08-26.618 19.196-7.325 8.995-12.843 18.123-16.882 27.12l-9.481 32.853"/><path d="M726.59 292.686c4.429-38.891 6.468-72.677 6.805-104.082-1.424-20.523-5.137-40.486-10.911-57.839-8.934-17.785-19.125-32.199-28.831-42.481-8.207-6.661-35.113-22.694-48.359-39.057-10.823-10.004-24.371-19.327-40.813-27.731-24.494-8.463-51.768-14.102-84.277-17.201-29.281-.148-56.787 2.032-78.64 6.196-23.127 7.38-48.296 19.092-73.26 34.847-19.528 15.518-35.292 31.563-49.408 50.513-12.612 23.116-20.727 43.487-26.894 65.47-4.008 24.31-4.725 40.127-2.481 78.13l5.966 63.792M57.454 895.951c2.57-22.299 5.981-35.487 9.918-46.383 5.49-11.514 11.872-22.354 19.89-33.621 7.925-9.093 22.742-22.56 41.178-34.728q26.461-13.495 66.884-30.953m457.159-79.006-8.035-95.177m9.122 104.931a154.36 154.36 0 0 1-284.321 1.635m8.658-105.094-7.165 93.052"/><path d="M629.472 136.836a219.82 219.82 0 0 1 68.173 126.937M49.382 1020l8.072-124.049m917.164 123.679-9.074-122.545m-770.22-146.819 169.749-76.694m600.471 223.513c6.289-56.947-63.777-123.458-120.729-138.53m0 0-187.392-85.002"/></g></svg>