<svg xmlns="http://www.w3.org/2000/svg" width="1024" height="1024" class="colorable-icon" overflow="visible" viewBox="30 -20 960 1064"><path fill="none" stroke="#000" stroke-linecap="round" stroke-linejoin="round" stroke-width="45" d="M142.973 167.664c-75.576 36.108-84.662 42.009-107.054 59.968m953.593 3.318 4.846 504.241M511.931 1020l.373-550.036m256.864-131.54L512.303 467.35m256.865-128.926.257 177.486m220.087-284.96L772.708 336.839M509.804 468.601 35.401 230.216M511.931 1020 80.08 806.379m908.292-581.962L554.653 14.06m218.055 322.779L291.812 97.091m703.193 638.125a81.94 81.94 0 0 1-61.964 76.271m.327 1.307L511.931 1020M80.222 806.022a80.624 80.624 0 0 1-49.45-89.028m-.782-.139 5.411-486.639M554.653 14.06C512.43-4.087 488.699 3.596 446.764 24.12m0 0L142.973 167.664"/></svg>