<svg xmlns="http://www.w3.org/2000/svg" width="1024" height="1024" viewBox="29.517723083496094 3.8438024520874023 965.4874267578125 1016.1561889648438" class="colorable-icon" data-export-recolorable-svg="true" overflow="visible"><g fill="none" stroke="black" stroke-width="45" stroke-linecap="round" stroke-linejoin="round"><path d="M 142.973,167.664 C 67.397,203.772 58.311,209.673 35.919,227.632" data-line="nan" stroke-width="45.0"></path><path d="M 989.512,230.95 L 994.358,735.191" data-line="0.0" stroke-width="45.0"></path><path d="M 511.931,1020.0 L 512.304,469.964" data-line="1.0" stroke-width="45.0"></path><path d="M 769.168,338.424 L 512.303,467.35" data-line="2.0" stroke-width="45.0"></path><path d="M 769.168,338.424 L 769.425,515.91" data-line="3.0" stroke-width="45.0"></path><path d="M 989.512,230.95 L 772.708,336.839" data-line="4.0" stroke-width="45.0"></path><path d="M 509.804,468.601 L 35.401,230.216" data-line="5.0" stroke-width="45.0"></path><path d="M 511.931,1020.0 L 80.08,806.379" data-line="6.0" stroke-width="45.0"></path><path d="M 988.372,224.417 L 554.653,14.06" data-line="7.0" stroke-width="45.0"></path><path d="M 772.708,336.839 L 291.812,97.091" data-line="8.0" stroke-width="45.0"></path><path d="M 995.0051254754983,735.2164194474706 A 81.9440035824978,81.9440035824978 0 0,1 933.0405096432376,811.4869670919107" data-line="9.0" stroke-width="45.0"></path><path d="M 933.368,812.794 L 511.931,1020.0" data-line="10.0" stroke-width="45.0"></path><path d="M 80.22249288329101,806.0224358576771 A 80.62357994644967,80.62357994644967 0 0,1 30.771169885240937,716.9943774628053" data-line="11.0" stroke-width="45.0"></path><path d="M 29.99,716.855 L 35.401,230.216" data-line="12.0" stroke-width="45.0"></path><path d="M 554.653,14.06 C 512.4300907985244,-4.086676228887217 488.6985748427914,3.5957836218435717 446.764,24.12" data-line="13.0" stroke-width="45.0"></path><path d="M 446.764,24.12 L 142.973,167.664" data-line="14.0" stroke-width="45.0"></path></g></svg>