<svg xmlns="http://www.w3.org/2000/svg" width="1024" height="1024" viewBox="4.38700008392334 13.954723358154297 1014.6403198242188 996.0299682617188" class="colorable-icon" data-export-recolorable-svg="true" overflow="visible"><g fill="none" stroke="white" stroke-width="45" stroke-linecap="round" stroke-linejoin="round"><path d="M 747.706,361.105 C 681.463,296.231 675.835,287.763 664.548,257.312" data-line="nan" stroke-width="45.0"></path><path d="M 720.35,116.05 C 788.992,117.362 817.726,119.815 827.353,121.66 C 837.147,124.932 851.61,132.81 861.241,140.416 C 874.442,154.229 884.956,168.733 892.881,183.465 C 896.392,193.096 898.377,202.729 899.465,217.14 L 899.777,241.116" data-line="nan" stroke-width="45.0"></path><path d="M 664.706,243.61 C 661.151,231.418 658.417,216.818 657.232,197.932 C 658.166,184.708 660.118,173.366 664.659,155.315 L 679.404,112.232" data-line="nan" stroke-width="45.0"></path><path d="M 900.628,343.329 C 936.612,315.997 951.119,304.079 960.807,294.733 C 973.519,280.223 987.046,261.362 998.206,241.778 C 1006.894,222.312 1013.301,203.04 1017.67,183.75 C 1019.807,164.535 1019.486,145.246 1016.241,126.088 C 1010.697,106.921 1004.396,92.393 992.231,73.091 C 980.231,59.071 966.221,46.139 951.802,35.591 C 937.475,27.722 918.1,20.198 899.152,15.753 C 880.075,13.53 856.135,13.356 836.97,15.298 C 813.399,20.607 791.563,27.614 772.345,35.818 C 753.755,46.0 734.437,58.921 715.222,74.253 Q 704.521,84.45 679.404,112.232" data-line="nan" stroke-width="45.0"></path><path d="M 901.335,505.248 C 901.031,522.567 899.363,528.906 896.428,535.102 Q 886.914,547.361 854.127,580.565" data-line="nan" stroke-width="45.0"></path><path d="M 689.992,745.38 L 618.308,817.535" data-line="nan" stroke-width="45.0"></path><path d="M 453.215,983.243 C 437.84,999.516 432.407,1003.783 419.639,1009.67 C 412.47,1010.799 398.901,1008.794 391.367,1005.192 Q 384.561,999.564 372.098,986.563" data-line="nan" stroke-width="45.0"></path><path d="M 21.445,635.478 C 11.06,624.194 7.665,619.187 4.387,610.07 C 4.521,600.347 7.189,591.353 12.973,582.113 L 36.259,558.609" data-line="nan" stroke-width="45.0"></path><path d="M 453.214,141.296 C 467.601,127.044 475.732,120.369 482.2,116.489 C 492.645,112.828 502.601,112.041 564.335,113.552" data-line="nan" stroke-width="45.0"></path><path d="M 658.652,115.285 Q 679.404,112.232 720.35,116.05" data-line="nan" stroke-width="45.0"></path><circle cx="699.9344476119047" cy="317.2380181718902" r="64.92089548070354" data-line="0.0" stroke-width="45.0"></circle><path d="M 899.777,241.116 L 901.335,505.248" data-line="6.0" stroke-width="45.0"></path><path d="M 854.127,580.565 L 689.992,745.38" data-line="8.0" stroke-width="45.0"></path><path d="M 664.706,243.61 L 664.548,257.312" data-line="8.0" stroke-width="45.0"></path><path d="M 618.308,817.535 L 453.215,983.243" data-line="10.0" stroke-width="45.0"></path><path d="M 372.098,986.563 L 21.445,635.478" data-line="12.0" stroke-width="45.0"></path><path d="M 36.259,558.609 L 453.214,141.296" data-line="14.0" stroke-width="45.0"></path><path d="M 564.335,113.552 L 658.652,115.285" data-line="16.0" stroke-width="45.0"></path></g></svg>