<svg xmlns="http://www.w3.org/2000/svg" width="1024" height="1024" class="colorable-icon" overflow="visible" viewBox="4.387 13.955 1014.64 996.03"><g fill="none" stroke="#fff" stroke-linecap="round" stroke-linejoin="round" stroke-width="45"><path d="M747.706 361.105c-66.243-64.874-71.871-73.342-83.158-103.793M720.35 116.05c68.642 1.312 97.376 3.765 107.003 5.61 9.794 3.272 24.257 11.15 33.888 18.756 13.201 13.813 23.715 28.317 31.64 43.049 3.511 9.631 5.496 19.264 6.584 33.675l.312 23.976m-235.071 2.494c-3.555-12.192-6.289-26.792-7.474-45.678.934-13.224 2.886-24.566 7.427-42.617l14.745-43.083"/><path d="M900.628 343.329c35.984-27.332 50.491-39.25 60.179-48.596 12.712-14.51 26.239-33.371 37.399-52.955 8.688-19.466 15.095-38.738 19.464-58.028 2.137-19.215 1.816-38.504-1.429-57.662-5.544-19.167-11.845-33.695-24.01-52.997-12-14.02-26.01-26.952-40.429-37.5-14.327-7.869-33.702-15.393-52.65-19.838-19.077-2.223-43.017-2.397-62.182-.455-23.571 5.309-45.407 12.316-64.625 20.52-18.59 10.182-37.908 23.103-57.123 38.435q-10.701 10.197-35.818 37.979m221.931 393.016c-.304 17.319-1.972 23.658-4.907 29.854q-9.514 12.259-42.301 45.463M689.992 745.38l-71.684 72.155M453.215 983.243c-15.375 16.273-20.808 20.54-33.576 26.427-7.169 1.129-20.738-.876-28.272-4.478q-6.806-5.628-19.269-18.629M21.445 635.478C11.06 624.194 7.665 619.187 4.387 610.07c.134-9.723 2.802-18.717 8.586-27.957l23.286-23.504m416.955-417.313c14.387-14.252 22.518-20.927 28.986-24.807 10.445-3.661 20.401-4.448 82.135-2.937"/><path d="M658.652 115.285q20.752-3.053 61.698.765"/><circle cx="699.934" cy="317.238" r="64.921"/><path d="m899.777 241.116 1.558 264.132m-47.208 75.317L689.992 745.38m-25.286-501.77-.158 13.702m-46.24 560.223L453.215 983.243m-81.117 3.32L21.445 635.478m14.814-76.869 416.955-417.313m111.121-27.744 94.317 1.733"/></g></svg>