<svg xmlns="http://www.w3.org/2000/svg" width="1024" height="1024" class="colorable-icon" overflow="visible" viewBox="-24 -24 1084 1084"><g fill="none" stroke="#000" stroke-linecap="round" stroke-linejoin="round" stroke-width="45"><path d="M0 416.71 452.09 5.54m0 0 3.98-2.11m0 0 2.82-1.13m0 0 8.87-2.3M921.6 412.97 467.76 0M343.83 553.72l-1.54 358.3m1.54-358.3a36 36 0 0 1 1.95-5.04m0 0 1.39-2.3m0 0 1.48-1.95m0 0 1.87-2.03m0 0 1.83-1.64m0 0 2.16-1.53m0 0a29.6 29.6 0 0 1 4.37-2.15m0 0 2.16-.67m0 0 2.42-.49m0 0 199.4.05m0 0a31.5 31.5 0 0 1 5.26 1.38m0 0 2.45 1.09m0 0 2.01 1.23m0 0 2.06 1.56m0 0 1.76 1.61m0 0 1.84 2.14m0 0 1.58 2.41m0 0 1.47 2.87m0 0a36.5 36.5 0 0 1 1.7 5.01m0 0 1.45 104.93M113.21 911.37l339.77.65M94.67 394.52l.3 495.94m0 0 .49 2.38m0 0 1.05 3.16m0 0 1.87 3.65m0 0 2.59 3.71m0 0 2.9 3.11m0 0 2.78 2.21m0 0 2.34 1.39m0 0 2.26.84m0 0 1.96.46m717.94-354.31-.21-158.34m-81.61 330.16 201.68-199.62m0 0 1.43-.65m0 0 1.58-.45m0 0 1.75-.33m0 0 66.34 1.02M813.47 795.81l207.07-209.13m1.127.171a191.6 191.6 0 0 0-.058-57.924M812.305 796.38a158.215 158.215 0 1 1-62.984-67.484"/><circle cx="669.735" cy="866.256" r="56.463"/><path d="m713.71 901.77 1.95-2.27"/></g></svg>