<svg xmlns="http://www.w3.org/2000/svg" width="1024" height="1024" viewBox="-24 -24 1084 1084" class="colorable-icon" data-export-recolorable-svg="true" overflow="visible"><g fill="none" stroke="black" stroke-width="45" stroke-linecap="round" stroke-linejoin="round"><path d="M 0.0,416.71 L 452.09,5.54" data-line="0" stroke-width="45.0"></path><path d="M 452.09,5.54 L 456.07,3.43" data-line="1" stroke-width="45.0"></path><path d="M 456.07,3.43 L 458.89,2.3" data-line="2" stroke-width="45.0"></path><path d="M 458.89,2.3 L 467.76,0.0" data-line="3" stroke-width="45.0"></path><path d="M 921.6,412.97 L 467.76,0.0" data-line="4" stroke-width="45.0"></path><path d="M 343.83,553.72 L 342.29,912.02" data-line="7" stroke-width="45.0"></path><path d="M 343.83000000265554,553.7200000008032 A 35.846317437590834,35.846317437590834 0 0,1 345.780000002495,548.6800000011887" data-line="8" stroke-width="45.0"></path><path d="M 345.78,548.68 L 347.17,546.38" data-line="9" stroke-width="45.0"></path><path d="M 347.17,546.38 L 348.65,544.43" data-line="10" stroke-width="45.0"></path><path d="M 348.65,544.43 L 350.52,542.4" data-line="11" stroke-width="45.0"></path><path d="M 350.52,542.4 L 352.35,540.76" data-line="12" stroke-width="45.0"></path><path d="M 352.35,540.76 L 354.51,539.23" data-line="13" stroke-width="45.0"></path><path d="M 354.5100000018999,539.2300000031732 A 29.633392163061274,29.633392163061274 0 0,1 358.8800000013936,537.0800000035409" data-line="14" stroke-width="45.0"></path><path d="M 358.88,537.08 L 361.04,536.41" data-line="15" stroke-width="45.0"></path><path d="M 361.04,536.41 L 363.46,535.92" data-line="16" stroke-width="45.0"></path><path d="M 363.46,535.92 L 562.86,535.97" data-line="17" stroke-width="45.0"></path><path d="M 562.859999999677,535.9700000018802 A 31.479837312238065,31.479837312238065 0 0,1 568.1199999993898,537.3500000017084" data-line="18" stroke-width="45.0"></path><path d="M 568.12,537.35 L 570.57,538.44" data-line="19" stroke-width="45.0"></path><path d="M 570.57,538.44 L 572.58,539.67" data-line="20" stroke-width="45.0"></path><path d="M 572.58,539.67 L 574.64,541.23" data-line="21" stroke-width="45.0"></path><path d="M 574.64,541.23 L 576.4,542.84" data-line="22" stroke-width="45.0"></path><path d="M 576.4,542.84 L 578.24,544.98" data-line="23" stroke-width="45.0"></path><path d="M 578.24,544.98 L 579.82,547.39" data-line="24" stroke-width="45.0"></path><path d="M 579.82,547.39 L 581.29,550.26" data-line="25" stroke-width="45.0"></path><path d="M 581.2899998053376,550.2600000822163 A 36.52041577603697,36.52041577603697 0 0,1 582.9899997948332,555.2700000534015" data-line="26" stroke-width="45.0"></path><path d="M 582.99,555.27 L 584.44,660.2" data-line="27" stroke-width="45.0"></path><path d="M 113.21,911.37 L 452.98,912.02" data-line="28" stroke-width="45.0"></path><path d="M 94.67,394.52 L 94.97,890.46" data-line="29" stroke-width="45.0"></path><path d="M 94.97,890.46 L 95.46,892.84" data-line="30" stroke-width="45.0"></path><path d="M 95.46,892.84 L 96.51,896.0" data-line="31" stroke-width="45.0"></path><path d="M 96.51,896.0 L 98.38,899.65" data-line="32" stroke-width="45.0"></path><path d="M 98.38,899.65 L 100.97,903.36" data-line="33" stroke-width="45.0"></path><path d="M 100.97,903.36 L 103.87,906.47" data-line="34" stroke-width="45.0"></path><path d="M 103.87,906.47 L 106.65,908.68" data-line="35" stroke-width="45.0"></path><path d="M 106.65,908.68 L 108.99,910.07" data-line="36" stroke-width="45.0"></path><path d="M 108.99,910.07 L 111.25,910.91" data-line="37" stroke-width="45.0"></path><path d="M 111.25,910.91 L 113.21,911.37" data-line="38" stroke-width="45.0"></path><path d="M 831.15,557.06 L 830.94,398.72" data-line="40" stroke-width="45.0"></path><path d="M 749.33,728.88 L 951.01,529.26" data-line="42" stroke-width="45.0"></path><path d="M 951.01,529.26 L 952.44,528.61" data-line="43" stroke-width="45.0"></path><path d="M 952.44,528.61 L 954.02,528.16" data-line="44" stroke-width="45.0"></path><path d="M 954.02,528.16 L 955.77,527.83" data-line="45" stroke-width="45.0"></path><path d="M 955.77,527.83 L 1022.11,528.85" data-line="46" stroke-width="45.0"></path><path d="M 813.47,795.81 L 1020.54,586.68" data-line="47" stroke-width="45.0"></path><path d="M 1021.6671079236003,586.8511699727283 A 191.6308078132393,191.6308078132393 0 0,0 1021.6091206874707,528.9270930978755" data-line="48" stroke-width="45.0"></path><path d="M 812.3049818195923,796.3798159519109 A 158.21469085990591,158.21469085990591 0 1,1 749.3208764267488,728.8957934280897" data-line="49" stroke-width="45.0"></path><circle cx="669.7349460541992" cy="866.2555163946737" r="56.46290883102187" data-line="55" stroke-width="45.0"></circle><path d="M 713.71,901.77 L 715.66,899.5" data-line="56" stroke-width="45.0"></path></g></svg>