<svg xmlns="http://www.w3.org/2000/svg" width="1024" height="1024" viewBox="0.9743204116821289 -0.7246742844581604 1023.0256958007812 1023.959228515625" class="colorable-icon" data-export-recolorable-svg="true" overflow="visible"><g fill="none" stroke="white" stroke-width="45" stroke-linecap="round" stroke-linejoin="round"><path d="M 870.8,464.77 C 893.63,441.08 900.23,432.74 907.05,422.14 C 913.42,409.14 916.61,400.41 919.59,388.8 L 921.28,376.39" data-line="nan" stroke-width="45.0"></path><path d="M 629.71,552.07 C 609.12,566.57 590.9,582.22 573.64,600.35 C 559.6,618.34 545.04,641.33 534.17,662.95 C 525.25,686.13 518.26,711.74 514.09,737.19 C 512.35,763.31 513.11,786.03 516.81,813.64 C 522.45,837.22 531.59,863.85 541.31,885.12 C 554.21,907.41 568.77,927.89 583.59,945.04 C 600.81,961.68 620.4,977.23 643.35,991.67 C 665.82,1002.72 689.85,1012.01 713.28,1018.35 C 736.66,1022.24 763.89,1023.99 789.97,1022.93 C 815.16,1019.42 839.71,1013.54 863.74,1005.31 C 885.69,995.32 908.11,982.4 929.46,966.74 C 946.41,951.51 965.55,930.63 979.48,912.03 C 992.82,889.82 1003.92,866.34 1012.8,841.22 C 1018.56,818.35 1022.36,793.98 1024.0,767.81 C 1023.22,744.93 1019.7,718.66 1014.13,695.49 C 1005.35,670.27 996.32,650.77 981.42,625.3 C 966.07,604.55 950.49,587.32 932.09,570.64 C 912.2,555.91 891.56,543.43 869.49,532.8 C 845.49,523.96 821.96,517.71 796.06,513.52 C 773.06,512.03 745.7,513.0 723.01,515.95 C 700.0,521.11 674.57,529.48 652.54,539.22 L 629.71,552.07" data-line="nan" stroke-width="45.0"></path><path d="M 782.99,763.43 C 796.15,766.74 808.34,771.16 817.72,775.77 C 826.9,781.68 835.8,789.28 843.08,797.84 C 848.73,807.17 852.51,816.48 854.6,825.67 C 855.25,837.98 853.56,850.3 850.6,859.63 C 845.94,869.05 839.32,878.25 833.51,884.33 C 824.01,892.01 811.73,898.93 799.44,903.42 C 787.12,905.94 768.55,907.94 748.5,905.27 C 732.76,900.77 723.21,896.45 712.76,890.08 C 702.47,881.48 695.95,874.14 689.75,864.81 C 685.95,856.77 683.27,848.15 681.27,836.75" data-line="nan" stroke-width="45.0"></path><path d="M 782.99,763.43 C 755.28,757.7 738.67,753.33 722.24,747.13 C 709.76,740.19 699.23,731.69 691.66,722.28 C 685.99,710.29 683.31,698.59 682.75,690.35 C 683.22,682.85 686.64,668.19 693.37,654.34 C 703.11,642.36 713.76,633.68 728.88,625.56 Q 746.58,620.01 765.65,617.07" data-line="nan" stroke-width="45.0"></path><path d="M 528.18,0.33 C 516.16,1.83 505.54,4.61 497.84,7.49 C 483.37,14.58 468.11,26.67 448.07,46.57" data-line="nan" stroke-width="45.0"></path><path d="M 22.57,472.56 C 11.59,485.13 4.85,497.31 1.86,506.32 C 0.43,513.89 0.43,527.23 4.14,541.59 C 11.31,553.93 18.62,562.27 38.03,581.74" data-line="nan" stroke-width="45.0"></path><circle cx="718.5873298898038" cy="200.80471073346888" r="90.47535407501958" data-line="3.0" stroke-width="45.0"></circle><path d="M 768.16,773.69 L 768.04,934.1" data-line="8.0" stroke-width="45.0"></path><path d="M 921.28,376.39 L 921.3,63.39" data-line="9.0" stroke-width="45.0"></path><path d="M 768.16,773.69 L 767.65,605.6" data-line="10.0" stroke-width="45.0"></path><path d="M 767.65,605.6 L 767.94,592.38" data-line="11.0" stroke-width="45.0"></path><path d="M 767.8506183335163,618.7757207813787 A 77.94216490832396,77.94216490832396 0 0,1 852.5541423311411,681.5893380943744" data-line="12.0" stroke-width="45.0"></path><path d="M 921.4136384649307,63.39436540833097 A 61.74873821176288,61.74873821176288 0 0,0 843.3359274010239,1.485963343776362" data-line="13.0" stroke-width="45.0"></path><path d="M 842.93,0.01 L 528.18,0.33" data-line="13.0" stroke-width="45.0"></path><path d="M 448.07,46.57 L 22.57,472.56" data-line="15.0" stroke-width="45.0"></path><path d="M 38.03,581.74 L 335.27,878.11" data-line="16.0" stroke-width="45.0"></path><path d="M 335.9449230128922,877.6275607083287 A 76.53786180521556,76.53786180521556 0 0,0 464.6843881401988,871.057917069987" data-line="17.0" stroke-width="45.0"></path></g></svg>