<svg xmlns="http://www.w3.org/2000/svg" width="1024" height="1024" class="colorable-icon" overflow="visible" viewBox=".974 -.725 1023.026 1023.959"><g fill="none" stroke="#fff" stroke-linecap="round" stroke-linejoin="round" stroke-width="45"><path d="M870.8 464.77c22.83-23.69 29.43-32.03 36.25-42.63 6.37-13 9.56-21.73 12.54-33.34l1.69-12.41M629.71 552.07c-20.59 14.5-38.81 30.15-56.07 48.28-14.04 17.99-28.6 40.98-39.47 62.6-8.92 23.18-15.91 48.79-20.08 74.24-1.74 26.12-.98 48.84 2.72 76.45 5.64 23.58 14.78 50.21 24.5 71.48 12.9 22.29 27.46 42.77 42.28 59.92 17.22 16.64 36.81 32.19 59.76 46.63 22.47 11.05 46.5 20.34 69.93 26.68 23.38 3.89 50.61 5.64 76.69 4.58 25.19-3.51 49.74-9.39 73.77-17.62 21.95-9.99 44.37-22.91 65.72-38.57 16.95-15.23 36.09-36.11 50.02-54.71 13.34-22.21 24.44-45.69 33.32-70.81 5.76-22.87 9.56-47.24 11.2-73.41-.78-22.88-4.3-49.15-9.87-72.32-8.78-25.22-17.81-44.72-32.71-70.19-15.35-20.75-30.93-37.98-49.33-54.66-19.89-14.73-40.53-27.21-62.6-37.84-24-8.84-47.53-15.09-73.43-19.28-23-1.49-50.36-.52-73.05 2.43-23.01 5.16-48.44 13.53-70.47 23.27z"/><path d="M782.99 763.43c13.16 3.31 25.35 7.73 34.73 12.34 9.18 5.91 18.08 13.51 25.36 22.07 5.65 9.33 9.43 18.64 11.52 27.83.65 12.31-1.04 24.63-4 33.96-4.66 9.42-11.28 18.62-17.09 24.7-9.5 7.68-21.78 14.6-34.07 19.09-12.32 2.52-30.89 4.52-50.94 1.85-15.74-4.5-25.29-8.82-35.74-15.19-10.29-8.6-16.81-15.94-23.01-25.27-3.8-8.04-6.48-16.66-8.48-28.06m101.72-73.32c-27.71-5.73-44.32-10.1-60.75-16.3-12.48-6.94-23.01-15.44-30.58-24.85-5.67-11.99-8.35-23.69-8.91-31.93.47-7.5 3.89-22.16 10.62-36.01 9.74-11.98 20.39-20.66 35.51-28.78q17.7-5.55 36.77-8.49M528.18.33c-12.02 1.5-22.64 4.28-30.34 7.16-14.47 7.09-29.73 19.18-49.77 39.08M22.57 472.56c-10.98 12.57-17.72 24.75-20.71 33.76-1.43 7.57-1.43 20.91 2.28 35.27 7.17 12.34 14.48 20.68 33.89 40.15"/><circle cx="718.587" cy="200.805" r="90.475"/><path d="m768.16 773.69-.12 160.41m153.24-557.71.02-313m-153.14 710.3-.51-168.09m0 0 .29-13.22m-.09 26.396a77.94 77.94 0 0 1 84.704 62.813m68.86-618.195a61.75 61.75 0 0 0-78.078-61.908M842.93.01 528.18.33m-80.11 46.24L22.57 472.56m15.46 109.18 297.24 296.37m.675-.482a76.538 76.538 0 0 0 128.74-6.57"/></g></svg>