<svg xmlns="http://www.w3.org/2000/svg" width="1024" height="1024" class="colorable-icon" overflow="visible" viewBox="-24 -24 1084 1084"><g fill="none" stroke="#000" stroke-linecap="round" stroke-linejoin="round" stroke-width="45"><path d="M585.97 472.05c56.68-27.98 61.2-31.93 64.36-36.82l2-9.72M420.67 920.72q-28.43-13.3-147.09-72.28M27.16 725.33c-9.3-5.69-17.42-13.41-23.03-22.63C1.25 693.51.18 680.58.14 597.15m.02-375.47.81-22.33m840.23.46-113.15-55.3M437.82 4.53C431.17 2 423.13.2 418.72 0c-6.44 1.28-20.31 6.95-90.56 40.83M39.05 181.13.97 199.35m473.83 696.6-52.23 25.65m419.52-462.53-.89-259.26M420.67 920.72l.01-516.85M841.2 199.81 420.68 403.87m0 0L.97 199.35m651.5 88.09L243.8 81.68m408.53 343.83.15-133.86m-378.9 556.79L27.16 725.33M.14 597.15l.02-375.47m727.89-77.17L437.82 4.53M799.01 648.4l118.94 119.36m-308.7.11 308.7-.11M801.48 885.01l116.47-117.25M328.16 40.83 39.05 181.13"/><circle cx="767.863" cy="768.614" r="255.519"/></g></svg>