<svg xmlns="http://www.w3.org/2000/svg" width="1024" height="1024" class="colorable-icon" overflow="visible" viewBox="4 74.924 1016 873.863"><path fill="none" stroke="#000" stroke-linecap="round" stroke-linejoin="round" stroke-width="45" d="M801.798 918.213c-1.589 10.111-5.061 17.245-10.546 23.354-6.799 4.24-19.329 6.977-61.53 7.22m-477.931-.051q-11.678-1.871-24.51-6.84M356.979 97.529c-12.164-12.441-16.717-15.557-26.243-19.604-9.187-1.891-18.09-2.582-61.994-2.449-17.19 2.641-33.795 8.229-51 17.565l-14.653 11.539m526.942-29.372c-26.936.206-35.817 1.198-44.792 4.202-4.444 2.482-12.885 9.434-24.447 22.692Q540.341 250.491 511.006 287.901m0 0L356.979 97.529M1020 301.363 824.58 108.455M1020 301.363 866.145 451.988m0 0-64.527-66.476M227.281 941.896l-6.218-555.198m0 0-65.445 63.372m0 0L4 301.817M203.089 104.58 4 301.817m797.618 83.695.18 532.701m22.782-809.758c-31.403-30.364-63.389-34.858-94.549-33.247m-.309 873.579-477.931-.051"/></svg>