<svg xmlns="http://www.w3.org/2000/svg" width="1024" height="1024" viewBox="4 74.92420959472656 1016 873.86279296875" class="colorable-icon" data-export-recolorable-svg="true" overflow="visible"><g fill="none" stroke="black" stroke-width="45" stroke-linecap="round" stroke-linejoin="round"><path d="M 801.798,918.213 C 800.209,928.324 796.737,935.458 791.252,941.567 C 784.453,945.807 771.923,948.544 729.722,948.787" data-line="nan" stroke-width="45.0"></path><path d="M 251.791,948.736 Q 240.113,946.865 227.281,941.896" data-line="nan" stroke-width="45.0"></path><path d="M 356.979,97.529 C 344.815,85.088 340.262,81.972 330.736,77.925 C 321.549,76.034 312.646,75.343 268.742,75.476 C 251.552,78.117 234.947,83.705 217.742,93.041 L 203.089,104.58" data-line="nan" stroke-width="45.0"></path><path d="M 730.031,75.208 C 703.095,75.414 694.214,76.406 685.239,79.41 C 680.795,81.892 672.354,88.844 660.792,102.102 Q 540.341,250.491 511.006,287.901" data-line="nan" stroke-width="45.0"></path><path d="M 511.006,287.901 L 356.979,97.529" data-line="0.0" stroke-width="45.0"></path><path d="M 1020.0,301.363 L 824.58,108.455" data-line="1.0" stroke-width="45.0"></path><path d="M 1020.0,301.363 L 866.145,451.988" data-line="2.0" stroke-width="45.0"></path><path d="M 866.145,451.988 L 801.618,385.512" data-line="3.0" stroke-width="45.0"></path><path d="M 227.281,941.896 L 221.063,386.698" data-line="5.0" stroke-width="45.0"></path><path d="M 221.063,386.698 L 155.618,450.07" data-line="6.0" stroke-width="45.0"></path><path d="M 155.618,450.07 L 4.0,301.817" data-line="7.0" stroke-width="45.0"></path><path d="M 203.089,104.58 L 4.0,301.817" data-line="9.0" stroke-width="45.0"></path><path d="M 801.618,385.512 L 801.798,918.213" data-line="9.0" stroke-width="45.0"></path><path d="M 824.58,108.455 C 793.1771031394021,78.09131625751388 761.1914160694577,73.59696390657224 730.031,75.208" data-line="10.0" stroke-width="45.0"></path><path d="M 729.722,948.787 L 251.791,948.736" data-line="11.0" stroke-width="45.0"></path></g></svg>