<svg xmlns="http://www.w3.org/2000/svg" width="1024" height="1024" class="colorable-icon" overflow="visible" viewBox="4.43 3.74 1015.521 1016.258"><g fill="none" stroke="#fff" stroke-linecap="round" stroke-linejoin="round" stroke-width="45"><path d="M754.538 1005.648c-7.172 5.274-13.92 8.845-29.28 13.461q-9.336.86-41.877.889m-627.257-.183c-6.603-.732-15.474-2.94-24.214-6.356-6.233-3.476-13.214-8.837-17.423-13.189-4.613-6.628-7.75-13.772-9.898-24.089-.536-45.883.266-76.375 2.627-102.377m253.536-267.237c4.276 17.075 7.884 26.426 14.838 39.062 10.644 15.278 21.766 28.443 36.127 42.753 15.77 12.837 28.831 21.308 39.594 26.699 12.171 4.569 28.783 9.201 42.704 11.947q31.51 3.275 86.581 4.49M634.48 329.565c-40.27 24.589-54.408 30.064-68.694 33.493-19.681 1.808-39.168.853-54.863-2.07-17.162-6.396-30.655-14.393-44.83-26.818-10.159-13.002-17.113-25.997-21.926-40.86-2.231-15.713-2.16-35.266.612-57.095"/><path d="M639.162 326.623c-12.098 54.643-19.293 76.542-26.55 93.965-8.941 17.637-19.662 35.109-32.676 52.731-15.187 17.254-32.634 33.633-49.946 47.033-17.339 11.048-35.111 20.25-56.971 28.887-17.361 4.909-39.112 8.818-60.86 10.231-21.746-1.011-43.561-4.372-60.833-8.807-21.673-7.93-39.384-16.514-56.513-26.861-17.343-12.783-34.783-28.457-46.803-41.371-13.83-17.496-25.289-34.974-36.968-56.763-7.675-17.534-15.337-39.122-32.31-100.941"/><path d="M375.992 238.781c1.604 23.6.919 39.034-2.643 57.636-5.442 14.475-13.591 28.401-24.534 41.072-11.669 9.601-24.92 17.24-38.861 22.56-18.651 4.098-36.032 5.096-55.926 3.049-13.974-3.594-28.146-9.151-65.471-32.128m659.405 328.748-59.102-170.13m231.091 171.23-171.989-1.1m171.989 1.1L883.542 771.805m53.095 172.5-53.095-172.5m53.095 172.5L788.594 840.798m0 0-22.955 15.948m22.955-15.948L641.267 942.98m54.006-170.904L641.267 942.98m54.006-170.904L553.317 661.118m176.73-1.802-176.73 1.802m122.958-.98-85.256-6.001M788.86 489.588l-58.813 169.728M566.04 605.612 677.682 660.2m76.856 345.448q2.31-2.192 4.963-5.18m0 0 2.309-3.024m.002.002a43.3 43.3 0 0 0 5.728-11.89m.006.002-1.907-128.812m-82.258 163.252-627.257-.183M440.118 235.71l-64.126 3.071m-23.474-16.401-172.104-2.552m172.104 2.552 3.583 1.238m0 0 3.639 1.649m0 0q4.01 2.357 5.292 3.482m0 0 10.96 10.032m-191.168 74.503-4.376-102.663"/><path d="M184.774 313.29a94.6 94.6 0 0 0 3.814 17.67m270.918-106.368-14.271 8.183m14.271-8.183a64 64 0 0 1 7.711-2.959m0 0 4.465-.901m0 0 170.081-2.362m0 0-7.283 111.195M179.424 210.507a232.373 232.373 0 0 1 462.65 7.84M7.099 873.79a309.39 309.39 0 0 1 253.857-266.053"/></g></svg>