<svg xmlns="http://www.w3.org/2000/svg" width="1024" height="1024" viewBox="4.42969274520874 3.739837884902954 1015.5213012695312 1016.2581787109375" class="colorable-icon" data-export-recolorable-svg="true" overflow="visible"><g fill="none" stroke="white" stroke-width="45" stroke-linecap="round" stroke-linejoin="round"><path d="M 754.538,1005.648 C 747.366,1010.922 740.618,1014.493 725.258,1019.109 Q 715.922,1019.969 683.381,1019.998" data-line="nan" stroke-width="45.0"></path><path d="M 56.124,1019.815 C 49.521,1019.083 40.65,1016.875 31.91,1013.459 C 25.677,1009.983 18.696,1004.622 14.487,1000.27 C 9.874,993.642 6.737,986.498 4.589,976.181 C 4.053,930.298 4.855,899.806 7.216,873.804" data-line="nan" stroke-width="45.0"></path><path d="M 260.752,606.567 C 265.028,623.642 268.636,632.993 275.59,645.629 C 286.234,660.907 297.356,674.072 311.717,688.382 C 327.487,701.219 340.548,709.69 351.311,715.081 C 363.482,719.65 380.094,724.282 394.015,727.028 Q 425.525,730.303 480.596,731.518" data-line="nan" stroke-width="45.0"></path><path d="M 634.48,329.565 C 594.21,354.154 580.072,359.629 565.786,363.058 C 546.105,364.866 526.618,363.911 510.923,360.988 C 493.761,354.592 480.268,346.595 466.093,334.17 C 455.934,321.168 448.98,308.173 444.167,293.31 C 441.936,277.597 442.007,258.044 444.779,236.215" data-line="nan" stroke-width="45.0"></path><path d="M 639.162,326.623 C 627.064,381.266 619.869,403.165 612.612,420.588 C 603.671,438.225 592.95,455.697 579.936,473.319 C 564.749,490.573 547.302,506.952 529.99,520.352 C 512.651,531.4 494.879,540.602 473.019,549.239 C 455.658,554.148 433.907,558.057 412.159,559.47 C 390.413,558.459 368.598,555.098 351.326,550.663 C 329.653,542.733 311.942,534.149 294.813,523.802 C 277.47,511.019 260.03,495.345 248.01,482.431 C 234.18,464.935 222.721,447.457 211.042,425.668 C 203.367,408.134 195.705,386.546 178.732,324.727" data-line="nan" stroke-width="45.0"></path><path d="M 375.992,238.781 C 377.596,262.381 376.911,277.815 373.349,296.417 C 367.907,310.892 359.758,324.818 348.815,337.489 C 337.146,347.09 323.895,354.729 309.954,360.049 C 291.303,364.147 273.922,365.145 254.028,363.098 C 240.054,359.504 225.882,353.947 188.557,330.97" data-line="nan" stroke-width="45.0"></path><path d="M 847.962,659.718 L 788.86,489.588" data-line="0.0" stroke-width="45.0"></path><path d="M 1019.951,660.818 L 847.962,659.718" data-line="1.0" stroke-width="45.0"></path><path d="M 1019.951,660.818 L 883.542,771.805" data-line="2.0" stroke-width="45.0"></path><path d="M 936.637,944.305 L 883.542,771.805" data-line="3.0" stroke-width="45.0"></path><path d="M 936.637,944.305 L 788.594,840.798" data-line="4.0" stroke-width="45.0"></path><path d="M 788.594,840.798 L 765.639,856.746" data-line="5.0" stroke-width="45.0"></path><path d="M 788.594,840.798 L 641.267,942.98" data-line="6.0" stroke-width="45.0"></path><path d="M 695.273,772.076 L 641.267,942.98" data-line="7.0" stroke-width="45.0"></path><path d="M 695.273,772.076 L 553.317,661.118" data-line="8.0" stroke-width="45.0"></path><path d="M 730.047,659.316 L 553.317,661.118" data-line="9.0" stroke-width="45.0"></path><path d="M 676.275,660.138 L 591.019,654.137" data-line="10.0" stroke-width="45.0"></path><path d="M 788.86,489.588 L 730.047,659.316" data-line="11.0" stroke-width="45.0"></path><path d="M 566.04,605.612 L 677.682,660.2" data-line="12.0" stroke-width="45.0"></path><path d="M 754.538,1005.648 Q 756.8485024797233,1003.4559987363853 759.501,1000.468" data-line="14.0" stroke-width="45.0"></path><path d="M 759.501,1000.468 L 761.81,997.444" data-line="15.0" stroke-width="45.0"></path><path d="M 761.8124066795222,997.445652962145 A 43.32880889755434,43.32880889755434 0 0,0 767.5401433634061,985.5562136131116" data-line="16.0" stroke-width="45.0"></path><path d="M 767.546,985.558 L 765.639,856.746" data-line="17.0" stroke-width="45.0"></path><path d="M 683.381,1019.998 L 56.124,1019.815" data-line="33.0" stroke-width="45.0"></path><path d="M 440.118,235.71 L 375.992,238.781" data-line="41.0" stroke-width="45.0"></path><path d="M 352.518,222.38 L 180.414,219.828" data-line="45.0" stroke-width="45.0"></path><path d="M 352.518,222.38 L 356.101,223.618" data-line="46.0" stroke-width="45.0"></path><path d="M 356.101,223.618 L 359.74,225.267" data-line="47.0" stroke-width="45.0"></path><path d="M 359.74,225.267 Q 363.74999999568115,227.6239999956136 365.032,228.749" data-line="48.0" stroke-width="45.0"></path><path d="M 365.032,228.749 L 375.992,238.781" data-line="49.0" stroke-width="45.0"></path><path d="M 184.824,313.284 L 180.448,210.621" data-line="50.0" stroke-width="45.0"></path><path d="M 184.77352814244043,313.28992664773233 A 94.57518628384668,94.57518628384668 0 0,0 188.5879724633354,330.96013590572034" data-line="51.0" stroke-width="45.0"></path><path d="M 459.506,224.592 L 445.235,232.775" data-line="52.0" stroke-width="45.0"></path><path d="M 459.5060000001865,224.59200000040528 A 63.63270678948155,63.63270678948155 0 0,1 467.2170000001307,221.63300000042045" data-line="53.0" stroke-width="45.0"></path><path d="M 467.217,221.633 L 471.682,220.732" data-line="54.0" stroke-width="45.0"></path><path d="M 471.682,220.732 L 641.763,218.37" data-line="55.0" stroke-width="45.0"></path><path d="M 641.763,218.37 L 634.48,329.565" data-line="56.0" stroke-width="45.0"></path><path d="M 179.4235351667593,210.50742078199326 A 232.373106069798,232.373106069798 0 0,1 642.0744651274284,218.34611592645552" data-line="57.0" stroke-width="45.0"></path><path d="M 7.098571871052172,873.7891762071763 A 309.3923568138679,309.3923568138679 0 0,1 260.95576787455144,607.7366788469888" data-line="58.0" stroke-width="45.0"></path></g></svg>