<svg xmlns="http://www.w3.org/2000/svg" width="1024" height="1024" class="colorable-icon" overflow="visible" viewBox="240 -20 550 1064"><g fill="none" stroke="#000" stroke-linecap="round" stroke-linejoin="round" stroke-width="45"><path d="M637.221 206.842c3.456 5.665 4.389 19.326 3.932 41.92-2.422 21.245-5.889 36.999-10.543 50.9-6.029 12.755-13.66 24.906-23.816 36.88-11.222 10.831-23.267 19.811-35.53 26.948-13.526 5.952-27.876 10.338-45.401 13.446-15.355.81-31.196-.349-45.657-3.182-14.572-4.668-26.085-9.736-38.472-16.817-12.448-9.118-24.234-20.025-32.746-29.867-7.762-11.455-14.609-24.829-19.161-36.797-3.756-14.52-6.021-28.412-7.372-44.251l.156-40.182m53.261 225.604c-20.518 1.445-29.846 3.403-41.139 7.048-11.154 5.049-20.817 10.73-29.029 16.842-7.879 7.221-18.744 20.368-23.634 28.021-4.609 9.294-9.874 23.06-23.029 65.275m318.585-343.52a200.54 200.54 0 0 1-126.144-91.831m-.14.013a191.85 191.85 0 0 1-128.89 91.734m-79.243 162.769c30.696-65.982 6.115-136.97 18.365-204.539m464.862 652.736-93.328-304.446m93.328 304.446-142.401.936M677.564 1020l-33.529-203.072M677.564 1020l-330.424-.091m33.024-202.854-33.024 202.854m33.024-202.854-142.6-1.321"/><path d="M321.537 163.25a192.935 192.935 0 0 1 382.728 43.663m.985.054c2.122 52.682-9.227 112.035 14.514 159.666m-26.612 144.902a106.075 106.075 0 0 0-124.517-78.292m-.334-1.608-132.429-.191M319.041 548.63l-81.477 267.104"/></g></svg>