<svg xmlns="http://www.w3.org/2000/svg" width="1024" height="1024" viewBox="240 -20 550 1064" class="colorable-icon" data-export-recolorable-svg="true" overflow="visible">
<g fill="none" stroke="black" stroke-width="45" stroke-linecap="round" stroke-linejoin="round">
<path d="M 637.221,206.842 C 640.677,212.507 641.61,226.168 641.153,248.762 C 638.731,270.007 635.264,285.761 630.61,299.662 C 624.581,312.417 616.95,324.568 606.794,336.542 C 595.572,347.373 583.527,356.353 571.264,363.49 C 557.738,369.442 543.388,373.828 525.863,376.936 C 510.508,377.746 494.667,376.587 480.206,373.754 C 465.634,369.086 454.121,364.018 441.734,356.937 C 429.286,347.819 417.5,336.912 408.988,327.07 C 401.226,315.615 394.379,302.241 389.827,290.273 C 386.071,275.753 383.806,261.861 382.455,246.022 L 382.611,205.84" data-line="nan" stroke-width="45.0"></path><path d="M 435.872,431.444 C 415.354,432.889 406.026,434.847 394.733,438.492 C 383.579,443.541 373.916,449.222 365.704,455.334 C 357.825,462.555 346.96,475.702 342.07,483.355 C 337.461,492.649 332.196,506.415 319.041,548.63" data-line="nan" stroke-width="45.0"></path><path d="M 637.6260709617204,205.1094953959207 A 200.5349448181897,200.5349448181897 0 0,1 511.4822726595135,113.27866887132406" data-line="1.0" stroke-width="45.0"></path><path d="M 511.3416617735709,113.29186970065422 A 191.84454044178915,191.84454044178915 0 0,1 382.4515419509398,205.02647901972415" data-line="2.0" stroke-width="45.0"></path>
<path d="M 303.209,367.795 C 333.90452446443584,301.8128704832994 309.3240106100549,230.82543463565756 321.574,163.256" data-line="7.0" stroke-width="45.0"></path>
<path d="M 786.436,815.992 L 693.108,511.546" data-line="8.0" stroke-width="45.0"></path>
<path d="M 786.436,815.992 L 644.035,816.928" data-line="9.0" stroke-width="45.0"></path>
<path d="M 677.564,1020.0 L 644.035,816.928" data-line="10.0" stroke-width="45.0"></path>
<path d="M 677.564,1020.0 L 347.14,1019.909" data-line="11.0" stroke-width="45.0"></path>
<path d="M 380.164,817.055 L 347.14,1019.909" data-line="12.0" stroke-width="45.0"></path><path d="M 380.164,817.055 L 237.564,815.734" data-line="13.0" stroke-width="45.0"></path>
<path d="M 321.53705973191705,163.24958142099484 A 192.9347560568171,192.9347560568171 0 0,1 704.2651505185554,206.91263312526755" data-line="14.0" stroke-width="45.0"></path>
<path d="M 705.25,206.967 C 707.37203187712,259.6493161831556 696.0233444745951,319.00213932084523 719.764,366.633" data-line="15.0" stroke-width="45.0"></path>
<path d="M 693.152456696731,511.5349594303699 A 106.074848329232,106.074848329232 0 0,0 568.6349168714485,433.2428073268445" data-line="16.0" stroke-width="45.0"></path>
<path d="M 568.301,431.635 L 435.872,431.444" data-line="17.0" stroke-width="45.0"></path><path d="M 319.041,548.63 L 237.564,815.734" data-line="19.0" stroke-width="45.0"></path>
</g>
</svg>